<?xml version="1.0" standalone="no"?><svg xmlns="http://www.w3.org/2000/svg" viewBox="0 0 1440 320"><path fill="#f3fbff" fill-opacity="1" d="M0,96L24,128C48,160,96,224,144,218.7C192,213,240,139,288,101.3C336,64,384,64,432,80C480,96,528,128,576,138.7C624,149,672,139,720,112C768,85,816,43,864,48C912,53,960,107,1008,117.3C1056,128,1104,96,1152,106.7C1200,117,1248,171,1296,186.7C1344,203,1392,181,1416,170.7L1440,160L1440,0L1416,0C1392,0,1344,0,1296,0C1248,0,1200,0,1152,0C1104,0,1056,0,1008,0C960,0,912,0,864,0C816,0,768,0,720,0C672,0,624,0,576,0C528,0,480,0,432,0C384,0,336,0,288,0C240,0,192,0,144,0C96,0,48,0,24,0L0,0Z"></path></svg>