<?xml version="1.0" standalone="no"?><svg xmlns="http://www.w3.org/2000/svg" viewBox="0 0 1440 320"><path fill="#f3fbff" fill-opacity="1" d="M0,64L17.1,69.3C34.3,75,69,85,103,117.3C137.1,149,171,203,206,224C240,245,274,235,309,213.3C342.9,192,377,160,411,154.7C445.7,149,480,171,514,186.7C548.6,203,583,213,617,197.3C651.4,181,686,139,720,106.7C754.3,75,789,53,823,53.3C857.1,53,891,75,926,90.7C960,107,994,117,1029,122.7C1062.9,128,1097,128,1131,112C1165.7,96,1200,64,1234,69.3C1268.6,75,1303,117,1337,144C1371.4,171,1406,181,1423,186.7L1440,192L1440,320L1422.9,320C1405.7,320,1371,320,1337,320C1302.9,320,1269,320,1234,320C1200,320,1166,320,1131,320C1097.1,320,1063,320,1029,320C994.3,320,960,320,926,320C891.4,320,857,320,823,320C788.6,320,754,320,720,320C685.7,320,651,320,617,320C582.9,320,549,320,514,320C480,320,446,320,411,320C377.1,320,343,320,309,320C274.3,320,240,320,206,320C171.4,320,137,320,103,320C68.6,320,34,320,17,320L0,320Z"></path></svg>